<?xml version="1.0" standalone="no"?>
<!DOCTYPE svg PUBLIC "-//W3C//DTD SVG 20010904//EN"
 "http://www.w3.org/TR/2001/REC-SVG-20010904/DTD/svg10.dtd">
<svg version="1.0" xmlns="http://www.w3.org/2000/svg"
 width="3000.000000pt" height="3000.000000pt" viewBox="0 0 3000.000000 3000.000000"
 preserveAspectRatio="xMidYMid meet">

<g transform="translate(0.000000,3000.000000) scale(0.100000,-0.100000)"
fill="#000000" stroke="none">
<path d="M14585 26299 c-1907 -89 -3700 -770 -5195 -1973 -341 -274 -812 -726
-1097 -1053 -526 -601 -945 -1226 -1293 -1928 -397 -799 -656 -1598 -805
-2480 -60 -358 -76 -524 -44 -475 8 13 10 13 19 0 8 -12 12 -13 19 -2 5 8 24
13 47 12 66 -3 84 0 82 13 -2 6 3 11 10 9 6 -1 12 2 12 8 0 5 12 10 28 10 15
0 40 9 56 19 17 11 33 18 38 15 4 -3 8 0 8 5 0 6 11 11 24 11 14 0 28 5 31 10
3 6 36 10 73 10 56 0 70 3 82 20 8 11 22 20 32 20 10 0 18 4 18 9 0 9 25 21
43 21 4 -1 14 6 23 14 10 10 28 14 55 11 30 -3 45 1 60 16 16 16 33 19 100 19
81 0 109 11 109 42 0 8 13 15 31 16 17 1 41 9 53 17 12 8 26 12 29 8 4 -3 7
-1 7 5 0 6 8 11 18 11 65 0 92 4 92 13 0 6 7 8 15 4 8 -3 15 -1 15 5 0 6 4 8
9 4 6 -3 14 2 19 11 5 9 12 15 15 15 39 -5 117 1 112 9 -3 6 3 10 15 10 12 0
19 4 16 9 -3 5 1 14 9 21 8 7 15 9 15 5 0 -5 8 -1 18 7 9 9 31 16 47 17 50 2
64 6 80 27 8 10 15 15 15 9 0 -5 4 -4 9 4 7 11 32 14 106 13 61 -1 94 2 90 8
-3 6 3 10 14 10 12 0 21 5 21 10 0 6 10 10 21 10 12 0 30 9 40 21 9 11 20 20
23 20 38 -5 86 1 81 9 -3 6 -1 11 4 11 6 1 16 2 21 3 6 0 15 7 20 15 6 10 33
15 95 17 62 1 93 6 106 17 13 11 19 12 23 4 3 -9 5 -9 5 1 1 6 8 12 17 12 8 0
12 5 9 10 -3 6 3 10 14 10 12 0 21 5 21 10 0 6 9 10 19 10 11 0 21 5 23 11 2
5 18 11 36 11 17 1 32 5 32 10 0 4 11 8 24 8 13 0 26 4 28 10 2 5 13 11 26 13
12 2 28 9 34 15 7 7 22 12 35 12 13 0 23 5 23 10 0 6 25 10 55 10 44 0 56 4
65 20 7 13 21 20 40 20 21 0 30 5 30 16 0 8 5 12 10 9 6 -3 10 1 10 10 0 11 5
15 15 11 8 -3 15 -2 15 3 0 5 10 9 23 9 34 0 51 6 62 20 7 8 33 13 68 13 33 0
55 4 52 10 -4 5 8 9 25 9 17 0 40 9 52 20 12 11 30 20 40 20 10 0 18 5 18 10
0 6 7 10 15 10 8 0 15 5 15 11 0 5 4 8 9 4 5 -3 12 -1 16 5 4 6 11 8 16 5 5
-4 9 -1 9 5 0 7 6 10 13 7 6 -2 26 1 44 8 17 8 34 11 37 7 3 -3 6 0 6 6 0 7 7
12 15 12 8 0 15 5 15 10 0 6 7 10 15 10 8 0 19 9 25 20 9 17 21 20 77 20 36 0
63 3 60 6 -11 11 34 43 50 37 11 -4 14 -3 9 6 -5 8 -3 12 5 10 33 -4 57 2 77
20 14 12 31 16 48 13 19 -3 25 -1 20 7 -4 6 -1 11 7 11 8 0 17 9 20 20 3 11
12 20 21 20 9 0 16 5 16 11 0 5 4 8 9 4 5 -3 16 2 24 10 9 8 20 15 26 15 6 0
11 4 11 10 0 5 14 8 30 6 16 -2 30 1 30 6 0 5 5 6 10 3 6 -3 10 -1 10 5 0 6 5
8 10 5 6 -3 10 -1 10 4 0 6 7 11 16 11 8 0 12 5 9 10 -3 6 0 10 7 10 7 0 30
19 50 41 27 30 43 40 58 36 11 -3 23 -1 26 4 3 5 10 7 15 4 5 -4 9 1 9 9 0 15
23 21 58 17 6 -1 12 3 12 9 0 5 3 9 8 9 29 -5 92 3 90 11 -6 19 66 70 99 70
17 0 34 4 37 9 3 5 23 9 43 9 21 0 39 5 41 11 2 6 7 9 12 6 5 -3 11 4 15 15 3
11 13 20 21 20 8 0 12 5 9 10 -3 6 3 10 13 10 13 0 21 9 24 25 3 14 1 25 -3
25 -10 0 -12 60 -3 84 3 9 10 13 15 10 5 -3 9 18 9 45 0 28 4 51 8 51 4 0 8
10 10 23 2 26 56 130 64 122 2 -3 6 14 7 37 2 51 9 131 15 172 2 16 10 34 17
40 8 7 13 25 11 45 -2 21 0 31 7 26 7 -4 11 4 11 19 0 14 5 26 10 26 6 0 10 6
10 14 0 8 8 21 18 28 10 7 21 21 25 31 4 11 12 15 18 11 7 -4 9 -3 5 4 -3 6
-2 13 3 17 6 3 8 12 5 20 -3 8 4 28 15 44 14 20 21 44 21 78 0 33 6 56 18 69
9 11 18 26 20 33 4 20 31 43 42 36 5 -3 10 -1 10 5 0 7 7 10 15 6 10 -4 15 1
15 14 0 20 22 20 2949 20 l2949 0 5 -21 c3 -12 10 -18 16 -14 6 3 11 1 11 -6
0 -7 3 -10 6 -6 4 3 13 0 21 -8 8 -8 30 -15 49 -15 21 0 43 -8 56 -20 12 -11
28 -20 35 -20 7 0 13 -4 13 -10 0 -6 29 -10 68 -10 47 0 63 3 52 10 -11 7 -4
10 28 10 23 0 42 5 42 10 0 6 9 10 20 10 11 0 20 5 20 10 0 6 72 10 195 10
123 0 195 -4 195 -10 0 -5 9 -10 20 -10 11 0 20 5 20 10 0 6 75 10 205 10 194
0 205 -1 215 -20 6 -12 21 -20 36 -20 14 0 22 -4 19 -10 -4 -6 19 -10 62 -10
48 0 63 3 53 10 -10 6 62 10 213 10 157 0 226 -3 222 -11 -5 -7 21 -9 79 -8
79 2 88 0 106 -21 11 -13 20 -20 20 -15 0 4 7 2 15 -5 8 -7 15 -10 15 -8 0 3
25 -18 55 -46 43 -39 55 -58 55 -80 0 -16 3 -26 7 -23 7 8 39 -34 35 -45 -1
-5 3 -8 9 -8 6 0 10 -10 9 -22 -5 -62 1 -189 9 -184 5 3 11 -3 14 -14 3 -12
14 -20 26 -20 12 0 21 -6 21 -16 0 -8 5 -12 10 -9 6 4 10 -12 10 -40 0 -28 4
-44 10 -40 10 6 14 -15 11 -44 -2 -7 2 -10 8 -6 7 4 11 -14 12 -52 1 -32 1
-61 0 -65 0 -5 4 -8 10 -8 5 0 9 -8 8 -17 -6 -64 2 -333 11 -328 5 3 12 -6 16
-20 3 -14 10 -25 15 -25 5 0 9 -7 9 -16 0 -8 7 -22 15 -31 8 -8 13 -19 10 -24
-4 -5 -1 -9 4 -9 6 0 11 -13 11 -30 0 -16 5 -30 10 -30 6 0 10 -7 10 -15 0 -8
7 -15 16 -15 8 0 12 -4 9 -10 -4 -6 5 -10 19 -10 14 0 26 -4 26 -10 0 -5 11
-10 25 -10 14 0 25 -5 25 -11 0 -5 5 -7 10 -4 6 3 10 1 10 -5 0 -6 4 -8 10 -5
5 3 12 -6 16 -20 4 -16 13 -25 25 -25 10 0 19 -4 19 -10 0 -5 7 -10 15 -10 8
0 15 -9 15 -20 0 -15 7 -20 26 -20 16 0 23 -4 18 -12 -5 -8 0 -9 15 -5 15 4
29 -1 42 -14 10 -10 24 -19 29 -19 6 0 10 -4 10 -10 0 -5 7 -10 16 -10 8 0 12
-4 9 -10 -3 -5 1 -10 9 -10 9 0 16 -4 16 -10 0 -5 23 -10 51 -10 44 0 55 -4
80 -31 16 -17 29 -28 29 -24 0 4 6 3 13 -3 6 -6 17 -11 22 -11 6 0 17 -7 26
-14 8 -8 27 -12 42 -10 16 2 27 -1 27 -8 0 -7 3 -9 7 -6 3 4 17 0 31 -9 13 -9
21 -11 18 -5 -4 6 -4 11 1 10 18 -1 67 -36 77 -54 13 -23 33 -46 41 -45 39 2
55 -2 55 -16 0 -8 4 -13 9 -9 5 3 16 -1 24 -9 8 -8 17 -12 21 -9 3 4 6 -1 6
-10 0 -9 7 -17 16 -17 8 0 12 -4 9 -10 -4 -6 15 -10 49 -10 33 0 56 -4 56 -11
0 -5 5 -7 10 -4 6 3 10 1 10 -6 0 -16 40 -50 51 -43 5 3 9 0 9 -6 0 -6 5 -8
10 -5 6 3 10 1 10 -5 0 -6 5 -8 10 -5 6 3 10 1 10 -5 0 -6 5 -8 10 -5 6 3 10
1 10 -4 0 -6 10 -11 23 -11 13 0 33 -9 45 -20 12 -11 26 -20 32 -20 6 0 8 -4
5 -10 -4 -6 5 -10 19 -10 14 0 26 -4 26 -10 0 -5 6 -10 13 -10 7 0 19 -9 26
-19 10 -13 23 -18 43 -16 15 2 28 -1 28 -6 0 -6 4 -8 9 -5 5 3 11 -1 15 -9 3
-8 15 -15 26 -15 11 0 20 -4 20 -10 0 -5 11 -10 25 -10 14 0 30 -9 37 -20 7
-11 21 -20 30 -20 10 0 18 -4 18 -10 0 -5 9 -10 19 -10 11 0 21 -4 23 -10 2
-5 31 -10 66 -11 44 -1 65 -6 69 -15 3 -8 11 -14 19 -14 8 0 14 -4 14 -8 0 -4
10 -9 22 -9 24 -2 48 -27 48 -50 0 -7 9 -13 21 -13 11 0 17 -4 14 -10 -4 -6
17 -10 55 -10 46 0 69 -5 90 -20 15 -11 30 -17 33 -13 4 3 13 1 20 -5 7 -6 28
-12 45 -14 18 -1 32 -6 32 -10 0 -4 11 -8 24 -8 13 0 29 -7 36 -15 7 -8 16
-12 21 -9 5 3 9 -2 9 -11 0 -35 26 -45 114 -45 70 0 86 -3 86 -15 0 -10 11
-15 33 -16 56 -2 122 -6 132 -8 6 -2 33 -2 62 -1 44 1 52 -2 58 -19 3 -12 11
-19 16 -16 5 4 9 1 9 -4 0 -6 7 -11 15 -11 8 0 15 -4 15 -8 0 -4 19 -9 43 -11
23 -1 44 -6 45 -12 2 -5 57 -9 123 -9 78 0 118 -4 114 -10 -7 -11 13 -12 114
-10 47 1 61 -2 56 -11 -6 -8 1 -10 24 -7 18 3 34 1 37 -4 3 -5 10 -6 15 -3 5
4 9 1 9 -5 0 -6 5 -8 10 -5 6 3 10 2 10 -2 0 -5 17 -10 38 -11 61 -4 71 -7 86
-27 11 -16 27 -18 120 -17 60 0 106 -3 106 -9 0 -11 220 -12 238 0 16 10 9 81
-34 361 -234 1528 -869 2974 -1841 4193 -386 485 -901 1003 -1373 1383 -1109
892 -2371 1494 -3750 1788 -725 155 -1527 220 -2275 185z m3585 -1991 c27 -44
22 -86 -12 -111 -22 -17 -33 -19 -54 -11 -46 16 -50 35 -21 97 31 68 56 75 87
25z m376 -421 c6 -16 -66 -127 -83 -127 -20 0 -27 64 -9 98 9 17 21 32 28 35
25 10 59 7 64 -6z m434 -78 c8 -14 8 -34 1 -67 -7 -35 -6 -54 5 -80 20 -49 17
-86 -11 -141 -26 -52 -39 -61 -90 -61 -56 0 -63 -8 -90 -94 -33 -112 -82 -161
-116 -120 -11 14 -9 33 14 123 15 58 27 130 27 160 0 49 3 58 43 101 23 26 70
82 105 124 66 79 93 92 112 55z m1190 -136 c0 -16 -16 -52 -35 -82 -29 -46
-33 -60 -28 -96 9 -69 -35 -129 -131 -177 -33 -17 -60 -41 -85 -78 -42 -61
-87 -99 -100 -84 -5 5 -5 34 0 69 5 33 13 91 18 128 11 79 16 86 84 125 29 16
95 73 148 126 100 101 129 116 129 69z m-2022 -61 c45 -29 13 -92 -48 -92 -30
0 -70 25 -70 45 0 7 12 27 26 45 28 33 45 33 92 2z m1176 -369 c13 -103 16
-94 -52 -140 -71 -48 -91 -52 -116 -24 -15 17 -15 21 14 76 16 31 30 63 30 70
0 22 60 65 89 65 26 0 29 -4 35 -47z m1436 -337 c0 -7 -16 -35 -37 -61 -35
-47 -36 -49 -25 -92 25 -93 6 -125 -49 -79 -17 14 -36 26 -44 26 -7 0 -36 -26
-64 -59 -53 -61 -109 -97 -125 -81 -13 13 19 145 47 202 19 38 35 50 127 99
104 56 170 73 170 45z m-2430 -78 c48 -52 4 -137 -57 -109 -22 10 -25 16 -20
47 7 39 32 84 47 84 5 0 18 -10 30 -22z m360 -127 c10 -7 15 -31 16 -78 2 -93
-1 -102 -51 -123 -35 -15 -46 -26 -52 -51 -18 -67 -67 -57 -99 18 -17 40 -4
85 45 157 48 69 104 100 141 77z m865 -508 c-4 -21 -10 -62 -14 -91 -4 -28
-12 -57 -17 -62 -15 -15 -179 -9 -179 6 0 17 184 184 202 184 13 0 14 -7 8
-37z"/>
<path d="M15548 17763 c12 -2 30 -2 40 0 9 3 -1 5 -23 4 -22 0 -30 -2 -17 -4z"/>
<path d="M15709 17761 c11 -7 8 -14 -15 -35 -36 -31 -44 -32 -78 -5 -23 18
-36 21 -81 16 -29 -3 -67 -13 -85 -22 -22 -12 -43 -15 -64 -10 -69 16 -248 1
-285 -24 -16 -10 -58 -18 -116 -22 -55 -4 -103 -12 -123 -23 -41 -21 -169 -36
-317 -36 -61 0 -115 -4 -120 -9 -6 -5 -28 -14 -50 -21 -22 -7 -78 -32 -125
-56 -47 -24 -117 -53 -157 -64 -39 -11 -96 -37 -125 -56 -29 -20 -66 -43 -83
-52 -16 -8 -50 -30 -74 -48 -24 -19 -60 -36 -80 -40 -20 -4 -65 -25 -101 -49
-36 -23 -90 -53 -120 -67 -33 -15 -67 -41 -83 -61 -17 -22 -39 -38 -59 -42
-45 -10 -127 -57 -163 -95 -16 -17 -55 -45 -85 -62 -30 -17 -76 -46 -101 -65
-26 -18 -50 -33 -54 -33 -4 0 -38 -22 -75 -50 -37 -27 -73 -50 -79 -50 -6 0
-38 -25 -71 -55 -33 -30 -66 -55 -74 -55 -7 0 -31 -14 -52 -31 -22 -17 -61
-42 -88 -56 -27 -13 -78 -52 -115 -87 -82 -76 -129 -111 -161 -121 -14 -4 -38
-17 -55 -29 -32 -24 -148 -66 -181 -66 -10 0 -48 -9 -82 -20 -36 -11 -92 -20
-128 -20 -47 0 -76 -6 -107 -22 -35 -18 -57 -21 -127 -20 -134 3 -326 -17
-435 -45 -101 -27 -178 -37 -381 -51 -78 -5 -118 -12 -137 -24 -14 -10 -41
-18 -59 -18 -18 0 -69 -7 -113 -16 -44 -8 -136 -19 -205 -23 -90 -5 -134 -12
-159 -25 -18 -10 -59 -20 -90 -23 -31 -3 -72 -14 -91 -25 -22 -12 -56 -18 -95
-18 -63 0 -247 -41 -270 -60 -30 -25 -156 -80 -183 -80 -29 0 -82 -30 -132
-74 -14 -12 -42 -33 -63 -47 -45 -28 -104 -103 -142 -180 -15 -29 -47 -75 -71
-101 -27 -29 -44 -57 -44 -71 0 -13 -13 -49 -30 -80 -16 -31 -30 -62 -30 -69
0 -7 -14 -33 -30 -57 -22 -33 -30 -56 -30 -89 0 -34 -12 -70 -47 -141 -41 -85
-47 -106 -53 -186 -4 -49 -12 -106 -19 -125 -6 -19 -11 -50 -11 -68 0 -28 -11
-46 -64 -100 -51 -54 -75 -91 -121 -187 -31 -66 -66 -144 -77 -172 -18 -49
-48 -81 -90 -96 -9 -3 -19 -1 -22 6 -2 7 -5 -121 -5 -285 -1 -294 -1 -296 19
-291 24 6 49 -21 50 -52 0 -32 -29 -68 -51 -62 -18 5 -19 -2 -19 -89 l0 -94
25 0 c44 0 51 -36 45 -223 -4 -142 -8 -170 -23 -188 -10 -11 -25 -18 -33 -15
-10 4 -14 -3 -14 -28 0 -29 3 -33 20 -29 27 7 80 -47 81 -84 1 -35 25 -100 67
-180 39 -75 110 -136 185 -158 29 -8 70 -28 92 -44 22 -15 64 -36 93 -45 48
-16 55 -23 94 -88 61 -103 192 -230 311 -302 29 -17 65 -41 80 -52 15 -12 43
-25 64 -29 41 -7 128 -49 138 -65 14 -23 112 -62 189 -76 53 -9 105 -26 148
-49 62 -33 85 -54 131 -119 12 -18 27 -26 48 -26 33 0 200 -45 239 -65 14 -7
41 -16 60 -19 19 -4 85 -32 145 -62 92 -45 128 -57 220 -73 129 -22 238 -65
304 -120 25 -21 70 -53 98 -70 29 -18 65 -51 80 -73 38 -57 127 -88 274 -97
96 -6 109 -9 138 -34 18 -15 42 -27 54 -27 12 0 58 -12 102 -26 44 -14 109
-32 145 -39 36 -8 92 -24 125 -36 35 -12 102 -24 160 -29 55 -4 113 -12 128
-19 18 -7 106 -11 241 -11 168 0 224 -3 267 -16 61 -19 99 -21 654 -29 380 -6
402 -5 435 13 45 24 107 105 121 157 20 73 27 82 80 109 79 39 125 36 188 -14
28 -22 51 -46 51 -53 0 -7 16 -37 36 -67 20 -30 48 -82 64 -115 20 -45 44 -75
91 -115 76 -66 105 -97 119 -130 25 -59 211 -150 306 -150 30 0 51 -7 71 -24
18 -15 48 -26 83 -30 63 -8 195 -68 204 -93 4 -9 1 -20 -6 -25 -7 -4 127 -8
299 -8 266 0 312 2 307 14 -11 28 18 58 89 90 40 18 78 40 86 50 20 23 54 40
129 60 78 21 200 96 339 206 120 96 147 137 159 248 l7 64 -44 -22 c-24 -12
-87 -64 -139 -115 -56 -54 -125 -109 -167 -134 -141 -81 -334 -141 -406 -125
-18 3 -52 17 -77 29 -25 13 -65 29 -90 36 -70 19 -160 94 -160 131 0 14 8 18
34 18 95 0 363 115 433 185 24 25 69 62 101 84 31 21 75 63 97 92 22 29 68 83
103 122 69 76 78 91 121 198 16 41 44 97 63 124 41 61 116 282 153 450 15 66
31 130 36 143 5 12 21 68 35 125 27 101 27 106 28 457 0 399 1 394 -79 595
-82 206 -123 286 -178 345 -29 30 -63 71 -75 92 -13 20 -45 51 -73 68 -47 31
-55 33 -140 31 -84 -1 -89 0 -80 17 6 11 36 31 69 45 50 23 75 27 168 29 152
3 223 -21 338 -114 114 -93 250 -272 282 -373 63 -194 84 -268 90 -317 3 -29
12 -78 19 -108 8 -30 17 -82 21 -115 3 -33 15 -77 25 -97 16 -31 19 -60 19
-176 0 -120 -3 -146 -21 -187 -11 -26 -24 -84 -29 -129 -4 -44 -13 -94 -19
-109 -21 -53 -11 -181 15 -191 16 -6 68 44 90 86 9 17 15 51 15 77 0 68 19
161 42 203 22 41 74 72 141 84 22 4 71 21 110 39 39 18 89 36 110 40 45 8 126
46 173 82 17 14 59 33 93 43 34 10 73 26 88 36 14 9 51 25 81 35 31 9 101 36
156 59 55 23 126 53 158 66 32 12 72 35 89 49 58 49 186 103 306 130 35 8 89
30 122 50 32 20 83 44 112 55 29 10 75 30 102 44 27 14 60 26 73 26 14 0 65
20 115 45 50 25 98 45 108 45 9 0 34 11 54 25 20 14 85 41 144 61 59 19 130
47 159 61 43 22 54 24 67 14 9 -8 16 -21 16 -30 0 -9 9 -35 20 -56 12 -22 27
-84 35 -138 14 -99 30 -138 63 -156 10 -5 32 -38 50 -73 17 -35 50 -84 72
-110 34 -39 53 -51 107 -68 36 -11 75 -20 87 -20 13 0 58 -9 101 -20 62 -16
111 -20 240 -20 197 0 254 10 321 55 54 35 79 80 72 127 -3 20 -11 24 -60 29
-68 7 -73 11 -137 98 -64 88 -68 97 -76 168 l-7 61 44 45 c39 39 48 57 71 138
78 280 105 613 73 894 -14 116 -25 161 -53 215 -21 41 -16 70 29 159 35 68 52
90 87 113 56 35 85 35 118 1 35 -38 132 -241 158 -330 7 -24 10 -25 62 -27
l33 -1 0 372 c0 305 -2 371 -13 367 -14 -5 -75 31 -169 99 -29 20 -61 37 -71
37 -11 0 -51 -12 -90 -27 -65 -26 -76 -34 -134 -108 -77 -96 -129 -198 -144
-280 -6 -33 -22 -82 -35 -110 -13 -27 -26 -70 -30 -94 -4 -25 -13 -56 -21 -70
-7 -14 -13 -30 -13 -35 0 -5 -11 -34 -24 -65 -29 -68 -82 -233 -90 -282 -8
-46 -28 -64 -97 -88 -30 -10 -73 -28 -95 -39 -22 -11 -77 -30 -122 -41 -45
-11 -95 -27 -112 -36 -17 -9 -54 -19 -83 -22 -29 -3 -59 -12 -67 -19 -19 -16
-144 -70 -225 -96 -168 -55 -304 -96 -340 -103 -22 -3 -50 -13 -62 -21 -25
-16 -227 -84 -324 -109 -34 -9 -71 -22 -83 -30 -11 -7 -64 -26 -116 -40 -146
-42 -234 -71 -279 -94 -22 -12 -74 -28 -115 -36 -41 -7 -88 -21 -105 -29 -16
-9 -99 -39 -183 -67 -84 -28 -178 -62 -208 -74 -30 -13 -73 -26 -95 -30 -22
-4 -60 -15 -85 -25 -105 -41 -248 -83 -263 -77 -15 5 -17 22 -17 114 0 59 -5
146 -10 193 -6 47 -14 126 -19 176 -8 83 -52 220 -82 260 -5 6 -25 55 -44 110
-47 129 -80 177 -228 320 -106 103 -136 126 -223 171 -104 54 -172 71 -361 89
-73 7 -224 -7 -344 -32 -151 -31 -433 -175 -549 -282 -36 -32 -84 -69 -107
-80 -45 -23 -73 -54 -93 -101 -7 -18 -33 -44 -62 -62 -55 -36 -88 -75 -112
-134 -10 -22 -38 -62 -65 -90 -73 -77 -128 -155 -151 -216 -12 -31 -41 -78
-64 -105 -71 -81 -148 -211 -162 -271 -7 -31 -28 -81 -47 -112 -66 -108 -124
-237 -141 -313 -10 -43 -31 -103 -47 -134 -17 -31 -44 -95 -61 -142 -17 -48
-39 -105 -51 -127 -11 -22 -30 -71 -43 -109 -31 -89 -37 -96 -93 -96 -25 0
-62 -5 -81 -11 -44 -14 -234 -28 -510 -37 -163 -5 -221 -11 -240 -22 -21 -12
-80 -15 -343 -16 -288 -1 -321 0 -355 17 -32 16 -73 19 -332 23 -475 9 -750
21 -808 36 -55 14 -77 33 -165 147 -135 175 -210 259 -300 336 -126 108 -227
162 -335 181 -44 8 -101 23 -127 35 -30 13 -69 21 -104 21 -32 0 -73 8 -96 19
-65 29 -180 61 -257 71 -40 5 -99 19 -131 30 -32 11 -79 23 -105 26 -88 11
-227 47 -292 76 -61 28 -243 81 -335 98 -22 4 -53 14 -70 23 -16 8 -61 24
-100 35 -100 29 -394 133 -505 180 -52 22 -129 54 -170 71 -41 17 -87 45 -102
61 -25 27 -28 38 -28 99 0 38 -7 88 -15 111 -13 37 -13 49 -1 94 8 28 29 121
46 206 36 171 41 183 113 288 85 124 110 119 122 -23 6 -65 4 -94 -9 -131 -9
-27 -16 -80 -16 -122 0 -72 1 -76 34 -107 19 -18 47 -36 63 -39 15 -4 66 -24
113 -45 137 -63 230 -99 305 -120 39 -11 95 -29 125 -39 163 -58 288 -88 405
-99 39 -3 87 -14 107 -24 25 -13 76 -22 170 -29 127 -9 280 -29 398 -51 30 -6
104 -15 164 -20 75 -7 128 -17 171 -34 48 -19 80 -25 142 -25 71 0 88 4 142
32 76 39 105 68 138 133 14 27 44 73 67 100 23 28 70 86 103 130 61 82 110
122 172 143 24 9 161 12 461 12 362 0 434 2 471 16 24 8 85 17 134 20 50 3
122 11 160 19 39 8 95 19 126 24 73 13 258 114 364 199 44 36 125 111 180 167
55 56 118 112 140 123 22 11 63 39 90 61 27 23 65 46 85 52 19 7 54 25 76 40
67 46 202 94 344 124 41 8 93 22 115 30 22 7 63 17 90 20 28 4 97 23 155 43
100 35 109 41 188 117 95 90 125 137 141 215 6 31 25 76 41 100 31 47 39 104
20 139 -8 17 -22 18 -157 13 -112 -3 -160 -9 -196 -23 -28 -11 -74 -19 -110
-19 -34 -1 -82 -6 -107 -11 -25 -6 -171 -15 -325 -20 -487 -16 -595 -23 -640
-44 -39 -19 -87 -19 -1500 -19 -1403 -1 -1462 0 -1505 18 -48 20 -154 29 -505
45 -195 8 -269 19 -365 50 -35 12 -102 21 -182 25 -139 7 -154 10 -168 36 -17
32 3 61 99 145 119 105 185 141 279 155 39 5 94 18 124 29 60 22 116 34 272
56 59 9 122 23 140 32 17 9 81 22 141 29 61 7 127 20 147 29 21 8 51 15 67 15
16 0 51 4 78 10 26 5 89 14 138 20 50 6 126 22 170 35 55 16 118 25 200 29 66
4 152 13 190 21 90 18 209 37 260 41 177 16 268 28 317 45 42 14 100 20 215
25 111 4 180 12 233 26 71 19 92 20 380 13 194 -4 329 -12 370 -21 49 -10 156
-13 435 -13 204 1 381 4 395 8 25 7 41 31 57 86 6 23 14 30 33 30 23 0 25 -4
26 -48 1 -27 7 -54 13 -60 9 -9 137 -14 469 -18 497 -7 642 -14 684 -35 15 -8
49 -14 75 -14 137 -1 370 -41 409 -71 5 -5 91 -11 190 -15 138 -5 191 -11 229
-25 33 -13 76 -19 126 -19 42 0 112 -7 155 -16 55 -12 108 -15 174 -11 55 2
106 0 120 -6 14 -5 79 -13 145 -17 66 -3 148 -14 183 -24 62 -17 65 -17 132 3
47 14 96 21 155 21 48 0 115 4 149 10 190 30 289 40 408 40 116 0 139 -3 173
-21 89 -47 174 -66 277 -62 53 2 116 10 139 18 24 9 77 15 127 15 46 0 112 4
146 10 33 5 99 14 146 20 134 18 141 20 180 60 65 66 28 63 960 88 174 5 275
12 293 20 16 6 66 12 112 12 46 0 95 5 108 11 48 22 60 97 32 199 -8 30 -20
80 -25 110 -15 77 -35 125 -85 200 -70 106 -122 195 -130 221 -13 44 -58 113
-110 169 -28 30 -70 85 -94 122 -76 118 -128 152 -281 178 -36 7 -91 23 -123
36 -39 16 -86 27 -140 30 -45 3 -98 12 -117 19 -40 16 -177 49 -266 65 -33 5
-85 19 -115 29 -31 11 -97 22 -154 26 -93 5 -138 14 -255 46 -47 13 -161 24
-390 37 -121 7 -141 11 -190 37 l-55 28 35 10 c19 5 64 6 100 2 36 -3 151 -10
255 -14 281 -13 475 -30 520 -48 22 -8 87 -19 145 -23 238 -19 266 -22 300
-31 19 -5 62 -9 95 -9 33 -1 71 -7 85 -15 16 -9 55 -14 106 -15 97 0 179 -14
237 -40 25 -12 65 -20 100 -20 99 0 234 -36 312 -83 173 -104 229 -150 266
-220 18 -32 0 -35 -81 -15 -67 17 -85 19 -110 8 -39 -16 -49 -53 -24 -85 11
-13 45 -55 77 -93 32 -39 68 -96 81 -129 13 -33 48 -93 78 -134 31 -41 72
-108 93 -149 21 -41 69 -121 108 -179 156 -233 185 -256 319 -256 75 0 91 -3
118 -23 47 -35 60 -24 60 52 0 53 -6 76 -32 128 -18 35 -43 77 -55 94 -12 16
-25 43 -29 59 -4 16 -20 50 -36 75 -16 26 -40 79 -54 120 -13 40 -38 88 -54
107 -17 18 -30 38 -30 44 0 5 -17 28 -39 52 -21 23 -42 53 -46 66 -4 12 -18
39 -31 58 -13 19 -26 50 -30 69 -4 22 -19 45 -39 62 -18 15 -40 44 -48 64 -10
23 -31 46 -55 62 -47 30 -72 62 -72 93 0 14 -14 32 -37 49 -21 15 -54 42 -73
60 -19 17 -53 37 -75 44 -22 7 -59 30 -82 51 -29 27 -52 39 -72 39 -16 0 -42
5 -58 11 -15 6 -60 15 -100 19 -39 4 -109 19 -155 33 -46 14 -139 38 -207 52
-69 14 -132 30 -142 36 -10 5 -82 9 -161 9 -172 0 -318 15 -357 35 -16 8 -48
17 -72 21 -24 4 -56 13 -71 20 -33 17 -274 55 -380 61 -72 4 -96 14 -65 26 6
3 -483 5 -1088 5 -605 0 -1091 -2 -1080 -5 52 -13 33 -23 -41 -23 -72 1 -77 2
-60 15 18 13 -5 15 -205 15 -135 0 -218 -4 -210 -9z m2044 -162 c12 -7 32 -20
45 -30 l23 -18 -43 -10 c-24 -6 -74 -20 -113 -32 -73 -22 -114 -20 -255 10
-25 6 -237 10 -476 11 -291 0 -441 4 -463 11 l-32 11 33 23 c19 12 42 25 53
28 11 2 287 5 613 6 430 1 599 -2 615 -10z m213 -1214 c3 -8 -7 -31 -24 -52
-16 -21 -40 -66 -52 -100 -16 -44 -35 -74 -65 -102 l-42 -39 -229 5 c-126 3
-233 9 -238 13 -4 5 -5 14 -1 20 5 8 57 11 184 9 124 -2 183 1 198 9 12 7 48
44 78 82 31 39 60 70 64 70 5 0 26 23 47 50 38 50 69 64 80 35z m-1822 -2959
c-6 -16 -34 -30 -42 -21 -6 5 28 34 40 35 4 0 5 -6 2 -14z m-3663 -1839 c73
-47 242 -218 259 -262 19 -50 4 -78 -81 -149 -44 -37 -103 -81 -130 -98 -53
-32 -136 -61 -150 -52 -5 3 8 31 28 62 24 38 38 73 41 103 4 44 2 48 -41 88
-80 75 -95 132 -51 196 20 30 25 49 24 89 -1 28 -1 54 -1 59 2 17 40 4 102
-36z m-692 -130 c-1 -78 3 -153 9 -167 21 -55 123 -174 179 -212 32 -21 62
-38 66 -38 5 0 15 -6 22 -14 10 -10 11 -16 2 -25 -21 -21 -57 -11 -154 43 -84
46 -101 60 -120 98 -12 23 -36 58 -52 77 -35 40 -91 168 -91 207 0 33 63 148
91 168 43 30 49 14 48 -137z m409 -464 c6 -19 -26 -27 -44 -13 -12 11 -12 15
-2 22 17 11 40 6 46 -9z m3326 -534 c14 -17 26 -39 26 -50 0 -18 -2 -19 -29
-5 -23 12 -51 58 -51 82 0 15 33 -2 54 -27z"/>
<path d="M18438 17763 c17 -2 47 -2 65 0 17 2 3 4 -33 4 -36 0 -50 -2 -32 -4z"/>
<path d="M21254 15390 c7 -111 21 -170 38 -170 7 0 8 18 4 53 -4 28 -11 85
-16 126 -5 41 -15 79 -21 85 -8 8 -10 -15 -5 -94z"/>
<path d="M6420 14909 c0 -21 100 -340 157 -499 675 -1902 1968 -3519 3678
-4595 831 -524 1789 -921 2745 -1139 2433 -555 4969 -77 7025 1322 992 675
1871 1583 2514 2596 393 619 725 1319 945 1993 25 78 46 144 46 147 0 3 -458
6 -1019 6 l-1018 0 -5 -879 c-4 -792 -6 -882 -21 -905 -9 -13 -26 -27 -37 -31
-11 -3 -20 -13 -20 -21 0 -8 -10 -34 -21 -57 -22 -42 -73 -174 -90 -233 -5
-18 -16 -37 -24 -44 -8 -7 -15 -21 -15 -32 0 -10 -11 -30 -25 -44 -15 -15 -29
-44 -34 -70 -10 -50 -23 -70 -54 -80 -12 -3 -53 -27 -91 -53 l-70 -46 -276 -3
c-237 -3 -283 -1 -321 13 -43 17 -91 28 -179 44 -25 5 -70 20 -100 33 -48 22
-62 36 -107 105 -29 43 -53 88 -53 100 0 13 -8 23 -23 27 -34 8 -77 59 -88
102 -4 22 -9 65 -9 97 0 31 -5 75 -12 96 l-12 38 -55 -19 c-93 -31 -117 -38
-129 -38 -7 0 -44 -16 -83 -35 -39 -19 -84 -35 -99 -35 -15 0 -44 -13 -65 -30
-27 -21 -49 -30 -76 -30 -21 0 -40 -4 -43 -9 -10 -16 -136 -81 -158 -81 -11 0
-36 -13 -54 -30 -50 -43 -103 -68 -173 -79 -33 -5 -71 -17 -83 -25 -12 -9 -31
-16 -41 -16 -31 0 -101 -41 -139 -82 -25 -28 -50 -43 -80 -49 -24 -6 -66 -21
-95 -35 -28 -13 -57 -24 -63 -24 -6 0 -28 -9 -48 -19 -47 -24 -101 -41 -133
-41 -35 0 -90 -22 -123 -47 -20 -16 -42 -23 -72 -23 -34 0 -48 -6 -72 -30 -17
-16 -37 -30 -44 -30 -8 0 -29 -11 -47 -24 -18 -13 -49 -27 -69 -31 -41 -7
-120 -43 -167 -75 -17 -11 -46 -20 -67 -20 -56 0 -88 -18 -88 -50 0 -15 -9
-39 -20 -53 -16 -20 -20 -40 -20 -107 0 -85 -9 -114 -58 -180 -20 -26 -28 -52
-33 -105 -4 -38 -14 -86 -22 -105 -8 -19 -20 -55 -27 -80 -6 -25 -18 -65 -27
-90 -9 -25 -19 -70 -22 -100 -4 -30 -17 -77 -29 -104 -12 -27 -22 -58 -22 -70
0 -11 -18 -47 -40 -80 -22 -32 -40 -66 -40 -75 0 -9 -9 -29 -20 -46 -11 -16
-20 -38 -20 -47 0 -16 -19 -42 -78 -105 -13 -14 -41 -51 -62 -82 -21 -31 -48
-62 -59 -69 -16 -9 -21 -22 -21 -55 0 -36 -8 -54 -50 -109 -27 -37 -62 -76
-77 -88 -16 -11 -59 -46 -96 -75 -38 -30 -77 -55 -87 -55 -10 0 -21 -4 -25 -9
-7 -13 -170 -101 -185 -101 -6 0 -23 -9 -37 -20 -14 -11 -38 -20 -53 -20 -19
0 -30 -7 -38 -25 -6 -13 -26 -32 -44 -41 -18 -9 -43 -28 -54 -42 -19 -23 -32
-27 -100 -33 -100 -9 -669 -10 -787 -1 -73 6 -92 11 -106 28 -21 27 -54 44
-81 44 -12 0 -38 16 -57 35 -34 34 -37 35 -113 35 -62 0 -82 4 -103 20 -14 11
-29 20 -34 20 -4 0 -28 14 -53 30 -25 16 -53 30 -62 30 -26 0 -73 45 -92 88
-11 25 -38 54 -78 82 -67 49 -98 84 -98 110 0 30 -59 149 -80 160 -22 12 -40
42 -51 85 -7 29 -7 29 -8 4 -1 -15 -17 -51 -37 -80 -20 -30 -44 -70 -54 -89
-25 -48 -87 -105 -135 -124 -36 -14 -96 -16 -495 -12 -250 3 -474 5 -497 5
-24 1 -60 1 -80 0 -21 -1 -60 5 -88 11 -27 7 -153 16 -280 21 -266 8 -411 21
-442 37 -12 7 -33 12 -46 12 -13 0 -54 14 -90 30 -41 18 -83 30 -110 30 -23 0
-53 7 -66 17 -13 9 -40 20 -60 24 -105 23 -192 48 -206 59 -8 6 -17 20 -20 31
-6 17 -17 19 -118 19 -108 0 -114 2 -156 30 -24 17 -57 30 -73 30 -33 0 -78
39 -78 67 0 11 -20 29 -53 47 -28 16 -66 41 -82 55 -66 57 -207 111 -289 111
-83 0 -212 49 -279 106 -18 15 -41 24 -63 24 -20 0 -54 11 -77 24 -23 13 -60
26 -83 30 -23 3 -67 17 -98 31 -31 14 -67 25 -80 25 -29 0 -72 33 -91 71 -9
16 -23 29 -33 29 -9 0 -42 16 -72 35 -43 28 -64 35 -104 35 -56 0 -177 54
-229 103 -16 15 -40 27 -52 27 -33 0 -106 33 -146 67 -19 15 -55 39 -81 52
-26 12 -68 42 -95 65 -27 22 -68 50 -91 60 -45 20 -122 114 -163 199 -15 31
-29 47 -42 47 -45 0 -120 34 -136 62 -11 19 -24 28 -42 28 -55 0 -249 163
-249 209 0 12 -9 34 -20 48 -11 14 -20 34 -20 44 0 10 -11 26 -25 35 -14 9
-31 26 -36 36 -13 23 -25 1435 -14 1567 6 74 10 87 39 120 17 20 44 65 60 101
16 36 42 93 57 126 16 34 29 66 29 72 0 18 51 72 91 97 41 27 40 21 57 250 5
78 12 109 30 139 13 22 29 56 36 78 l14 38 -857 0 c-556 0 -851 4 -841 10 10
6 -71 10 -237 10 -182 0 -253 -3 -253 -11z"/>
<path d="M16741 10584 c-17 -38 -7 -40 19 -5 16 23 18 31 7 31 -7 0 -19 -12
-26 -26z"/>
<path d="M5810 6858 c-1 -438 -2 -491 -15 -473 -40 53 -105 109 -159 135 -226
111 -519 23 -681 -205 -139 -194 -204 -456 -192 -769 12 -310 90 -532 245
-697 73 -78 135 -121 215 -148 187 -64 384 -17 516 125 34 35 72 86 85 111 29
58 32 50 42 -109 l6 -118 202 0 201 0 -6 212 c-4 117 -7 711 -8 1321 l-1 1107
-225 0 -225 0 0 -492z m-174 -741 c40 -21 102 -85 124 -127 42 -83 50 -136 50
-346 0 -112 -5 -227 -11 -256 -16 -75 -53 -148 -96 -192 -58 -58 -88 -71 -173
-71 -64 0 -82 4 -122 27 -78 47 -136 138 -169 268 -21 83 -19 337 4 420 45
163 116 255 227 291 36 12 132 4 166 -14z"/>
<path d="M12010 6986 l-215 -62 -3 -197 -2 -197 -95 0 -95 0 0 -210 0 -210 95
0 95 0 0 -372 c0 -414 10 -597 40 -712 50 -196 168 -314 346 -347 100 -19 345
8 378 41 5 5 5 98 1 213 l-7 204 -97 -1 c-84 -1 -100 2 -127 21 -75 54 -84
115 -84 574 l0 379 163 2 162 3 3 208 2 207 -165 0 -165 0 0 260 c0 143 -3
259 -7 259 -5 -1 -105 -29 -223 -63z"/>
<path d="M17800 6986 l-215 -62 -3 -197 -2 -197 -95 0 -95 0 0 -210 0 -210 95
0 95 0 0 -372 c0 -414 10 -597 40 -712 64 -251 232 -369 500 -352 94 6 207 29
224 46 4 4 5 100 1 212 l-7 204 -97 0 c-84 -1 -100 2 -127 21 -75 54 -84 115
-84 574 l0 379 163 2 162 3 3 208 2 207 -165 0 -165 0 0 260 c0 143 -3 259 -7
259 -5 -1 -105 -29 -223 -63z"/>
<path d="M3620 6560 c-143 -20 -410 -121 -410 -154 0 -12 66 -306 76 -338 4
-15 11 -14 54 13 27 16 86 44 132 62 77 29 92 31 209 32 122 0 127 -1 174 -30
57 -35 91 -93 101 -172 l7 -53 -69 0 c-140 -1 -318 -38 -429 -91 -180 -85
-291 -218 -342 -409 -21 -81 -24 -272 -4 -350 37 -152 141 -294 255 -350 185
-92 411 -48 555 106 34 36 64 64 67 61 2 -2 10 -43 16 -91 l12 -86 204 0 205
0 -8 73 c-4 39 -11 331 -15 647 l-7 575 -26 97 c-63 239 -199 386 -407 444
-68 18 -262 26 -350 14z m348 -1142 c-3 -142 -5 -156 -30 -203 -49 -94 -125
-145 -213 -145 -55 0 -93 18 -128 60 -64 76 -62 228 3 321 46 64 185 117 308
118 l64 1 -4 -152z"/>
<path d="M8838 6560 c-186 -33 -338 -138 -448 -306 -218 -334 -239 -881 -46
-1229 59 -106 181 -223 287 -273 132 -63 199 -76 379 -76 119 1 179 6 258 23
92 19 224 63 245 81 7 6 -45 366 -55 375 -2 2 -33 -5 -68 -16 -223 -69 -449
-64 -578 14 -78 46 -140 132 -157 217 -3 19 -9 43 -11 53 -5 16 22 17 469 17
l474 0 7 61 c17 169 -1 404 -43 549 -44 155 -123 294 -210 372 -58 52 -154
105 -225 124 -65 18 -217 26 -278 14z m188 -390 c75 -33 139 -150 151 -277 l6
-63 -272 0 c-210 0 -271 3 -271 13 1 33 33 143 55 187 76 150 195 201 331 140z"/>
<path d="M10680 6552 c-115 -30 -233 -118 -302 -224 -39 -62 -42 -56 -53 95
l-7 107 -200 0 c-187 0 -200 -1 -193 -17 4 -10 10 -420 13 -910 l5 -893 223 0
224 0 0 563 c0 595 1 612 48 703 28 54 105 122 149 130 102 19 186 -20 230
-107 49 -95 53 -143 53 -736 l0 -553 226 0 225 0 -4 658 c-3 636 -4 660 -25
739 -59 222 -149 352 -293 418 -104 47 -208 56 -319 27z"/>
<path d="M15425 6556 c-124 -39 -230 -145 -283 -283 -36 -93 -35 -92 -43 -33
-4 30 -8 98 -8 150 -2 154 19 140 -208 140 -182 0 -195 -1 -188 -17 4 -10 10
-420 13 -910 l5 -893 223 0 224 0 0 505 c0 332 4 522 11 557 41 194 190 301
377 270 l52 -9 0 262 c0 231 -2 264 -16 269 -26 10 -116 5 -159 -8z"/>
<path d="M16423 6560 c-126 -23 -251 -89 -343 -181 -301 -301 -371 -948 -146
-1354 59 -106 181 -223 287 -273 149 -71 306 -94 502 -73 143 16 342 68 380
101 7 6 -45 366 -55 375 -2 2 -33 -5 -68 -16 -152 -47 -353 -63 -457 -35 -156
42 -260 147 -282 287 l-8 49 472 0 472 0 7 61 c11 105 7 277 -9 383 -54 362
-218 594 -470 663 -66 17 -216 24 -282 13z m205 -396 c72 -42 128 -151 139
-270 l6 -64 -272 0 c-149 0 -271 3 -271 8 0 4 7 37 14 73 49 232 223 346 384
253z"/>
<path d="M19248 6560 c-166 -30 -274 -85 -388 -200 -182 -181 -262 -407 -264
-740 -2 -281 51 -475 180 -656 180 -255 511 -356 817 -249 103 35 173 81 262
170 180 181 259 414 259 760 -1 222 -27 344 -110 515 -50 102 -66 124 -148
205 -99 98 -186 150 -301 181 -71 18 -241 26 -307 14z m173 -400 c88 -24 170
-143 206 -297 26 -111 25 -378 -1 -483 -62 -249 -207 -360 -367 -279 -78 39
-137 132 -175 274 -28 105 -26 399 4 507 39 143 90 220 174 262 55 28 101 32
159 16z"/>
<path d="M22995 6556 c-125 -40 -230 -145 -283 -283 -36 -93 -35 -92 -43 -33
-4 30 -7 101 -8 157 -1 56 -4 108 -7 117 -5 14 -33 16 -201 16 -182 0 -195 -1
-188 -17 4 -10 10 -420 13 -910 l5 -893 223 0 224 0 0 505 c0 332 4 522 11
557 41 194 190 301 377 270 l52 -9 -2 266 -3 266 -65 2 c-36 1 -83 -4 -105
-11z"/>
<path d="M6540 6521 c0 -5 9 -37 19 -72 11 -35 119 -404 241 -819 121 -415
232 -792 246 -838 l25 -82 227 2 227 3 271 905 272 905 -236 3 c-129 1 -237 1
-238 -1 -9 -9 -207 -913 -234 -1068 -36 -203 -40 -223 -45 -218 -2 2 -15 70
-29 151 -19 110 -195 885 -252 1114 l-6 24 -244 0 c-137 0 -244 -4 -244 -9z"/>
<path d="M12900 5955 c0 -729 10 -829 102 -1015 104 -211 302 -308 526 -255
126 30 236 110 313 228 20 32 40 54 42 50 3 -4 8 -55 12 -113 3 -58 9 -113 11
-122 5 -16 23 -18 201 -18 l196 0 -6 122 c-4 66 -7 476 -7 910 l0 788 -230 0
-229 0 -3 -597 c-3 -584 -3 -599 -24 -644 -28 -60 -78 -116 -127 -141 -32 -16
-54 -19 -102 -16 -109 7 -167 74 -199 231 -13 64 -16 163 -16 622 l0 545 -230
0 -230 0 0 -575z"/>
<path d="M20460 5961 c0 -325 5 -613 11 -672 29 -291 136 -494 301 -572 223
-105 486 -23 629 196 20 32 40 54 42 50 3 -4 8 -55 12 -113 3 -58 9 -113 11
-122 5 -16 23 -18 201 -18 l196 0 -6 113 c-4 61 -7 471 -7 910 l0 797 -230 0
-229 0 -3 -597 c-3 -584 -3 -599 -24 -644 -28 -60 -78 -116 -127 -141 -32 -16
-54 -19 -102 -16 -77 5 -124 36 -161 110 -50 99 -54 154 -54 744 l0 544 -230
0 -230 0 0 -569z"/>
<path d="M24120 5955 c0 -725 10 -825 100 -1013 72 -151 187 -239 344 -264
194 -30 382 59 497 235 20 32 40 54 42 50 3 -4 8 -55 12 -113 3 -58 9 -113 11
-122 5 -16 23 -18 201 -18 l196 0 -6 122 c-4 66 -7 476 -7 910 l0 788 -230 0
-229 0 -3 -597 c-3 -591 -3 -599 -25 -645 -51 -109 -135 -164 -237 -156 -100
8 -159 79 -190 231 -13 64 -16 163 -16 622 l0 545 -230 0 -230 0 0 -575z"/>
<path d="M25860 6305 l0 -225 320 -2 320 -3 -102 -140 c-56 -77 -212 -310
-345 -518 l-243 -378 0 -164 0 -165 635 0 635 0 0 225 0 225 -356 0 -356 0 34
43 c108 133 637 949 647 999 3 16 5 96 3 178 l-3 150 -595 0 -594 0 0 -225z"/>
<path d="M23467 5349 c-119 -28 -197 -135 -213 -291 -13 -130 30 -254 111
-326 126 -111 313 -61 386 104 44 98 44 261 0 359 -51 116 -172 181 -284 154z"/>
</g>
</svg>
